<?xml version="1.0" encoding="UTF-8" standalone="no"?>
<svg
   xmlns:dc="http://purl.org/dc/elements/1.1/"
   xmlns:cc="http://creativecommons.org/ns#"
   xmlns:rdf="http://www.w3.org/1999/02/22-rdf-syntax-ns#"
   xmlns:svg="http://www.w3.org/2000/svg"
   xmlns="http://www.w3.org/2000/svg"
   id="svg2334"
   version="1.1"
   viewBox="0 0 90 90"
   height="90mm"
   width="90mm">
  <defs
     id="defs2328" />
  <metadata
     id="metadata2331">
    <rdf:RDF>
      <cc:Work
         rdf:about="">
        <dc:format>image/svg+xml</dc:format>
        <dc:type
           rdf:resource="http://purl.org/dc/dcmitype/StillImage" />
        <dc:title></dc:title>
      </cc:Work>
    </rdf:RDF>
  </metadata>
  <g
     transform="translate(0,-207)"
     id="layer1">
    <g
       id="g3888"
       transform="matrix(0.35277777,0,0,-0.35277777,-76.955533,729.43519)">
      <path
         id="path232"
         style="fill:#28292a;fill-opacity:1;fill-rule:nonzero;stroke:none;stroke-width:0.1"
         d="m 403.512,1324.04 c -1.858,-6.78 -2.375,-11.86 -14.866,-12.26 -12.491,-0.4 -23.569,-0.51 -28.183,10.68 -4.614,11.18 -4.87,14.13 -5.054,17.86 -0.19,3.83 4.792,7.37 13.195,8.33 8.402,0.97 22.201,1.54 31.225,-1.2 9.025,-2.73 5.542,-16.62 3.683,-23.41 z m -70.593,-1.58 c -4.614,-11.19 -15.692,-11.08 -28.183,-10.68 -12.491,0.4 -13.008,5.48 -14.867,12.26 -1.859,6.79 -5.341,20.68 3.683,23.41 9.025,2.74 22.824,2.17 31.226,1.2 8.402,-0.96 13.385,-4.5 13.195,-8.33 -0.184,-3.73 -0.44,-6.68 -5.054,-17.86 z m 84.135,28.94 c -15.084,3 -38.348,6.26 -48.693,4.37 -10.767,-1.96 -13.455,-3.08 -14.661,-5.33 -1.205,-2.26 -5.148,-2.37 -7.009,-2.46 -1.861,0.09 -5.804,0.2 -7.01,2.46 -1.205,2.25 -6.064,3.49 -16.918,4.9 -12.422,1.6 -31.351,-0.94 -46.435,-3.94 -1.06,-0.22 -1.816,-1.16 -1.795,-2.24 0.049,-2.44 0.265,-6.94 1.129,-11.59 0.208,-1.12 1.209,-1.92 2.345,-1.85 l 4.002,0.23 c 0,0 1.355,-10.25 3.354,-18.71 2.177,-9.21 8.314,-11.6 22.808,-11.44 14.493,0.16 20.974,0.28 25.77,8.49 4.796,8.21 6.506,17.92 12.75,17.94 5.922,0.09 7.953,-9.73 12.75,-17.94 4.796,-8.21 11.276,-8.33 25.77,-8.49 14.494,-0.16 20.631,2.23 22.808,11.44 1.999,8.46 3.354,18.71 3.354,18.71 l 4.002,-0.23 c 1.136,-0.07 2.137,0.73 2.345,1.85 0.864,4.65 1.079,9.15 1.128,11.59 0.022,1.08 -0.734,2.02 -1.794,2.24" />
      <path
         id="path234"
         style="fill:#28292a;fill-opacity:1;fill-rule:nonzero;stroke:none;stroke-width:0.1"
         d="m 416.452,1334.38 c 0,0 -8.371,-31.27 11.894,-44.49 0,0 -5.874,-2.5 -11.307,1.61 0,0 -0.881,-9.83 10.426,-16.59 0,0 -9.545,-4.4 -20.118,8.96 0,0 -0.587,-6.17 3.671,-12.92 0,0 -18.503,7.49 -19.09,14.09 -0.092,1.04 4.406,10.58 3.965,19.68 0,0 7.783,0.29 10.72,4.99 1.693,2.71 2.79,6.02 3.524,10.43 0.734,4.41 2.35,14.24 2.35,14.24 h 3.965" />
      <path
         id="path236"
         style="fill:#28292a;fill-opacity:1;fill-rule:nonzero;stroke:none;stroke-width:0.1"
         d="m 343.982,1297.56 c -0.634,0.76 -1.542,0.11 -1.432,-1.1 0.111,-1.21 2.974,-2.42 6.939,-1.32 0,0 -3.855,0.44 -5.507,2.42" />
      <path
         id="path238"
         style="fill:#28292a;fill-opacity:1;fill-rule:nonzero;stroke:none;stroke-width:0.1"
         d="m 332.748,1281.37 c -0.863,0.54 0.11,-2.75 4.956,-3.96 4.846,-1.21 13.657,0 13.657,0 0,0 -10.793,-0.88 -18.613,3.96" />
      <path
         id="path240"
         style="fill:#28292a;fill-opacity:1;fill-rule:nonzero;stroke:none;stroke-width:0.1"
         d="m 294.311,1305.27 c 0,0 -1.872,-17.4 10.463,-31.5 12.335,-14.09 21.146,-17.84 21.146,-17.84 0,0 -33.371,23.46 -29.516,48.68 l -2.093,0.66" />
      <path
         id="path242"
         style="fill:#28292a;fill-opacity:1;fill-rule:nonzero;stroke:none;stroke-width:0.1"
         d="m 341.339,1254.06 c -0.508,0.75 4.516,-2.53 11.234,0 0,0 -8.26,-4.41 -11.234,0" />
      <path
         id="path244"
         style="fill:#28292a;fill-opacity:1;fill-rule:nonzero;stroke:none;stroke-width:0.1"
         d="m 394.755,1304.39 c 0,0 0.22,-17 -12.005,-33.44 0,0 -7.049,-9.95 -17.842,-13.37 0,0 -2.753,0.88 -0.661,1.32 2.093,0.44 16.08,7.16 21.146,17.41 5.067,10.24 7.91,20.27 7.82,28.08 h 1.542" />
      <path
         id="path246"
         style="fill:#28292a;fill-opacity:1;fill-rule:nonzero;stroke:none;stroke-width:0.1"
         d="m 423.207,1385.63 c -8.664,10.58 -22.762,35.84 -32.307,46.11 -9.545,10.28 -55.655,32.9 -94.717,-3.96 0,0 -32.159,2.08 -36.565,-29.06 -4.405,-31.15 4.699,-69.33 4.699,-78.14 0,-8.81 -2.643,-30.25 -24.523,-15.86 0,0 -2.35,-3.96 3.818,-7.19 0,0 6.314,-17.19 25.257,-7.93 0,0 -3.23,-10.43 -14.097,-12.78 0,0 0.881,-4.26 9.986,-2.35 0,0 5.306,-4.26 9.775,0.15 4.469,4.4 5.791,8.95 5.791,8.95 0,0 3.818,-0.14 5.58,2.06 1.762,2.2 4.993,4.55 3.965,2.2 -1.028,-2.35 -4.699,-7.19 -3.231,-7.05 1.469,0.15 4.846,3.97 5.874,3.97 1.028,0 2.056,-2.06 0.734,-3.82 -1.322,-1.76 0.147,-2.35 1.762,-1.32 1.616,1.03 3.084,2.06 3.084,2.06 0,0 -6.02,8.74 -4.993,24.12 0,0 -6.314,1.43 -7.783,7.15 -1.468,5.73 -4.552,21.44 -4.552,21.44 0,0 -5.56,-1.46 -6.231,0.74 -0.671,2.2 -2.726,15.86 -1.992,17.03 0.734,1.18 14.244,4.1 17.475,4.18 0,0 -6.902,26.22 11.6,25.34 0,0 -0.547,8.61 10.721,4.7 0,0 -1.322,6.75 18.502,-9.55 10.43,-8.57 18.588,-15.76 29.577,-20.63 2.598,0.8 7.334,1.71 15.6,1.84 -5.507,1.68 -9.94,3.39 -12.554,4.4 -11.444,4.43 -49.07,35.25 -49.07,35.25 l -0.603,2.01 c -0.564,1.88 1.142,3.7 3.036,3.2 14.065,-3.78 23,-22.29 52.488,-38.11 32.307,-17.33 71.956,5.58 71.956,5.58 -6.945,-10.37 -16.925,-15.08 -27.504,-16.61 4,-0.8 7.316,-1.54 9.42,-2.03 19.706,4.78 25.14,16.08 26.601,26.87 0,0 -17.915,-3.53 -26.579,7.04" />
      <path
         id="path248"
         style="fill:#28292a;fill-opacity:1;fill-rule:nonzero;stroke:none;stroke-width:0.1"
         d="m 324.604,1336.86 -5.513,-5.27 2.24,7.27 c -0.713,0.22 -1.455,0.37 -2.24,0.37 -4.217,0 -7.636,-3.42 -7.636,-7.64 0,-4.21 3.419,-7.63 7.636,-7.63 4.218,0 7.636,3.42 7.636,7.63 0,2.05 -0.815,3.9 -2.123,5.27" />
      <path
         id="path250"
         style="fill:#28292a;fill-opacity:1;fill-rule:nonzero;stroke:none;stroke-width:0.1"
         d="m 378.351,1336.86 -5.513,-5.27 2.24,7.27 c -0.714,0.22 -1.455,0.37 -2.24,0.37 -4.218,0 -7.637,-3.42 -7.637,-7.64 0,-4.21 3.419,-7.63 7.637,-7.63 4.217,0 7.635,3.42 7.635,7.63 0,2.05 -0.814,3.9 -2.122,5.27" />
    </g>
  </g>
</svg>
